<svg xmlns="http://www.w3.org/2000/svg" width="57" height="110" viewBox="0 0 57 110">
  <g id="scroll" transform="translate(139 -2648)">
    <g id="Rectangle_18" data-name="Rectangle 18" transform="translate(-139 2648)" fill="#fff" stroke="#fff" stroke-width="1">
      <rect width="57" height="110" rx="28.5" stroke="none"/>
      <rect x="0.5" y="0.5" width="56" height="109" rx="28" fill="none"/>
    </g>
    <g id="Rectangle_19" data-name="Rectangle 19" transform="translate(-131 2660)" fill="#6700ee" stroke="#fff" stroke-width="1">
      <rect width="41" height="87" rx="20.5" stroke="none"/>
      <rect x="0.5" y="0.5" width="40" height="86" rx="20" fill="none"/>
    </g>
    <g id="Path_19" data-name="Path 19" transform="translate(-117.5 2670)" fill="#fff">
      <path d="M 7 17.49999618530273 C 3.415889978408813 17.49999618530273 0.5 13.68691635131836 0.5 8.999997138977051 C 0.5 6.795166969299316 1.157099962234497 4.98565673828125 2.400259971618652 3.767096757888794 C 3.547620058059692 2.642436742782593 5.138179779052734 2.047976732254028 7 2.047976732254028 C 8.861820220947266 2.047976732254028 10.45238018035889 2.642436742782593 11.59974002838135 3.767096757888794 C 12.84290027618408 4.98565673828125 13.5 6.795166969299316 13.5 8.999997138977051 C 13.5 13.68691635131836 10.58411026000977 17.49999618530273 7 17.49999618530273 Z" stroke="none"/>
      <path d="M 7 2.547977447509766 C 5.271759986877441 2.547977447509766 3.802229881286621 3.093017578125 2.750260353088379 4.124166488647461 C 1.605230331420898 5.246537208557129 1 6.93256664276123 1 8.999997138977051 C 1 11.18272686004639 1.6533203125 13.22479629516602 2.83961009979248 14.7500171661377 C 3.968099594116211 16.20093727111816 5.445619583129883 16.99999618530273 7 16.99999618530273 C 8.554380416870117 16.99999618530273 10.03190040588379 16.20093727111816 11.16038990020752 14.7500171661377 C 12.3466796875 13.22479629516602 13 11.18272686004639 13 8.999997138977051 C 13 6.93256664276123 12.3947696685791 5.246537208557129 11.24973964691162 4.124166488647461 C 10.19777011871338 3.093017578125 8.728240013122559 2.547977447509766 7 2.547977447509766 M 7 1.547977447509766 C 10.86598968505859 1.547977447509766 14 4.029437065124512 14 8.999997138977051 C 14 13.97056674957275 10.86598968505859 17.99999618530273 7 17.99999618530273 C 3.134010314941406 17.99999618530273 0 13.97056674957275 0 8.999997138977051 C 0 4.029437065124512 3.134010314941406 1.547977447509766 7 1.547977447509766 Z" stroke="none" fill="#707070"/>
    </g>
  </g>
</svg>
